<svg id="Laag_1" data-name="Laag 1" xmlns="http://www.w3.org/2000/svg" xmlns:xlink="http://www.w3.org/1999/xlink" viewBox="0 0 113.39 28.35"><defs><style>.cls-1,.cls-3{fill:none;}.cls-2{clip-path:url(#clip-path);}.cls-3{stroke:#121212;stroke-miterlimit:10;stroke-width:2px;}.cls-4{fill:#121212;}.cls-5{fill:#f0ebe3;}</style><clipPath id="clip-path"><rect class="cls-1" x="12.56" y="2.76" width="90.71" height="22.68"/></clipPath></defs><title>Tekengebied 1</title><g class="cls-2"><path class="cls-3" d="M24.72,25.06c-6.51,0-11.81-4.93-11.81-11s5.3-11,11.81-11S36.53,8,36.53,14.07,31.23,25.06,24.72,25.06Z"/><path class="cls-4" d="M34.94,14.07c0,5.25-4.58,9.51-10.22,9.51S14.5,19.33,14.5,14.07s4.58-9.51,10.22-9.51,10.22,4.26,10.22,9.51"/><path class="cls-5" d="M23.07,20.33H25.7V14.22h1.83l.2-2h-2V11c0-.48.1-.67.61-.67h1.42V8.21H25.9c-2,0-2.83.8-2.83,2.33v1.63H21.71v2.07h1.36Z"/><path class="cls-3" d="M91.11,25.1c-6.51,0-11.81-4.93-11.81-11s5.3-11,11.81-11,11.81,4.93,11.81,11S97.62,25.1,91.11,25.1Z"/><path class="cls-4" d="M101.33,14.11c0,5.25-4.58,9.51-10.22,9.51s-10.22-4.26-10.22-9.51S85.46,4.6,91.11,4.6s10.22,4.26,10.22,9.51"/><path class="cls-5" d="M88,15.66a.26.26,0,0,0,.37-.17l.15-.55c0-.17,0-.23-.11-.38a1.89,1.89,0,0,1-.48-1.34,3.37,3.37,0,0,1,3.62-3.28c2,0,3.06,1.12,3.06,2.62,0,2-.94,3.64-2.33,3.64a1.08,1.08,0,0,1-1.16-1.32,13.8,13.8,0,0,0,.65-2.43.94.94,0,0,0-1-1,1.6,1.6,0,0,0-1.42,1.77,2.48,2.48,0,0,0,.23,1.08L88.62,18a7.15,7.15,0,0,0,0,2.6.1.1,0,0,0,.17,0A7.2,7.2,0,0,0,90.1,18.4c.09-.3.52-1.88.52-1.88a2.15,2.15,0,0,0,1.8.85c2.36,0,4-2,4-4.69,0-2-1.85-3.92-4.65-3.92-3.49,0-5.25,2.33-5.25,4.27A2.6,2.6,0,0,0,88,15.66"/><path class="cls-3" d="M57.73,25.1c-6.51,0-11.81-4.93-11.81-11s5.3-11,11.81-11,11.81,4.93,11.81,11S64.24,25.1,57.73,25.1Z"/><path class="cls-4" d="M67.95,14.11c0,5.25-4.58,9.51-10.22,9.51s-10.22-4.26-10.22-9.51S52.08,4.6,57.73,4.6s10.22,4.26,10.22,9.51"/><path class="cls-5" d="M57.74,8.81c-1.6,0-1.81,0-2.44,0a4.63,4.63,0,0,0-1.43.26,2.93,2.93,0,0,0-1,.63,2.69,2.69,0,0,0-.68,1A3.8,3.8,0,0,0,51.87,12c0,.59,0,.77,0,2.27s0,1.68,0,2.27a3.8,3.8,0,0,0,.27,1.34,2.69,2.69,0,0,0,.68,1,2.93,2.93,0,0,0,1,.63,4.61,4.61,0,0,0,1.43.26c.63,0,.83,0,2.44,0s1.81,0,2.44,0a4.61,4.61,0,0,0,1.43-.26,2.93,2.93,0,0,0,1-.63,2.69,2.69,0,0,0,.68-1,3.8,3.8,0,0,0,.27-1.34c0-.59,0-.77,0-2.27s0-1.68,0-2.27a3.8,3.8,0,0,0-.27-1.34,2.69,2.69,0,0,0-.68-1,2.93,2.93,0,0,0-1-.63,4.63,4.63,0,0,0-1.43-.26c-.63,0-.83,0-2.44,0m0,1c1.58,0,1.76,0,2.39,0a3.49,3.49,0,0,1,1.1.19,1.85,1.85,0,0,1,.68.41,1.7,1.7,0,0,1,.44.63,2.86,2.86,0,0,1,.2,1c0,.58,0,.75,0,2.22s0,1.64,0,2.22a2.86,2.86,0,0,1-.2,1,1.7,1.7,0,0,1-.44.63,1.85,1.85,0,0,1-.68.41,3.48,3.48,0,0,1-1.1.19c-.62,0-.81,0-2.39,0s-1.76,0-2.39,0a3.48,3.48,0,0,1-1.1-.19,1.85,1.85,0,0,1-.68-.41,1.7,1.7,0,0,1-.44-.63,2.86,2.86,0,0,1-.2-1c0-.58,0-.75,0-2.22s0-1.64,0-2.22a2.86,2.86,0,0,1,.2-1,1.7,1.7,0,0,1,.44-.63,1.85,1.85,0,0,1,.68-.41,3.49,3.49,0,0,1,1.1-.19c.62,0,.81,0,2.39,0"/><path class="cls-5" d="M57.74,16.15a1.84,1.84,0,1,1,2-1.83,1.91,1.91,0,0,1-2,1.83m0-4.66a2.93,2.93,0,0,0-3,2.82,3,3,0,0,0,6.07,0,2.93,2.93,0,0,0-3-2.82"/><path class="cls-5" d="M61.6,11.38a.71.71,0,1,1-.71-.66.69.69,0,0,1,.71.66"/></g></svg>